<svg fill="none" height="24" viewBox="0 0 24 24" width="24" xmlns="http://www.w3.org/2000/svg"><g fill="#292d32"><path d="m17.5999 22.5601h-11.20005c-1.82001 0-3.48-1.4-3.78-3.2l-1.33001-7.96c-.21-1.24.39001-2.82999 1.38001-3.61999l6.93001-5.55005c1.34004-1.08 3.44994-1.06999 4.79994.01001l6.9301 5.54004c.98.79 1.58 2.37999 1.38 3.61999l-1.33 7.96c-.3 1.77-1.99 3.2-3.78 3.2zm-5.61-19.62002c-.53 0-1.0601.15997-1.4501.46997l-6.92995 5.55005c-.57.46-.95999 1.48-.83999 2.2l1.33 7.96c.18 1.05 1.22998 1.94 2.29999 1.94h11.20005c1.07 0 2.1199-.89 2.2999-1.95l1.33-7.96c.12-.72-.2799-1.75001-.8399-2.20001l-6.93-5.54004c-.4-.31-.93-.46997-1.47-.46997z"/><path d="m12 16.25c-1.79 0-3.25-1.46-3.25-3.25s1.46-3.25 3.25-3.25 3.25 1.46 3.25 3.25-1.46 3.25-3.25 3.25zm0-5c-.96 0-1.75.79-1.75 1.75s.79 1.75 1.75 1.75 1.75-.79 1.75-1.75-.79-1.75-1.75-1.75z"/></g></svg>