<svg fill="none" height="24" viewBox="0 0 24 24" width="24" xmlns="http://www.w3.org/2000/svg"><g stroke="#363853" stroke-width="1.5"><path d="m3.29701 5.2338c.22542-.96101.97578-1.71137 1.93679-1.93679.83283-.19536 1.69957-.19536 2.5324 0 .96101.22542 1.71137.97578 1.93679 1.93679.19536.83283.19536 1.69957 0 2.5324-.22542.96101-.97578 1.71137-1.93679 1.93679-.83283.19536-1.69957.19536-2.5324 0-.96101-.22542-1.71137-.97578-1.93679-1.93679-.19535-.83283-.19535-1.69957 0-2.5324z"/><path d="m3.29701 16.2338c.22542-.961.97578-1.7114 1.93679-1.9368.83283-.1953 1.69957-.1953 2.5324 0 .96101.2254 1.71137.9758 1.93679 1.9368.19536.8328.19536 1.6996 0 2.5324-.22542.961-.97578 1.7114-1.93679 1.9368-.83283.1953-1.69957.1953-2.5324 0-.96101-.2254-1.71137-.9758-1.93679-1.9368-.19535-.8328-.19535-1.6996 0-2.5324z"/><path d="m14.297 5.2338c.2254-.96101.9758-1.71137 1.9368-1.93679.8328-.19536 1.6996-.19536 2.5324 0 .961.22542 1.7114.97578 1.9368 1.93679.1953.83283.1953 1.69957 0 2.5324-.2254.96101-.9758 1.71137-1.9368 1.93679-.8328.19536-1.6996.19536-2.5324 0-.961-.22542-1.7114-.97578-1.9368-1.93679-.1953-.83283-.1953-1.69957 0-2.5324z"/><path d="m14.297 16.2338c.2254-.961.9758-1.7114 1.9368-1.9368.8328-.1953 1.6996-.1953 2.5324 0 .961.2254 1.7114.9758 1.9368 1.9368.1953.8328.1953 1.6996 0 2.5324-.2254.961-.9758 1.7114-1.9368 1.9368-.8328.1953-1.6996.1953-2.5324 0-.961-.2254-1.7114-.9758-1.9368-1.9368-.1953-.8328-.1953-1.6996 0-2.5324z"/></g></svg>