<svg fill="none" height="16" viewBox="0 0 16 16" width="16" xmlns="http://www.w3.org/2000/svg"><g fill="#212121"><path d="m5 1.5c0-.27614.22386-.5.5-.5h4c.27614 0 .5.22386.5.5s-.22386.5-.5.5h-4c-.27614 0-.5-.22386-.5-.5z"/><path d="m7.5 15c3.3137 0 6-2.6863 6-6 0-3.31371-2.6863-6-6-6-3.31371 0-6 2.68629-6 6 0 3.3137 2.68629 6 6 6zm0-10c.27614 0 .5.22386.5.5v4c0 .27614-.22386.5-.5.5s-.5-.22386-.5-.5v-4c0-.27614.22386-.5.5-.5z"/><path d="m12.4532 2.64188c-.1953-.19526-.5119-.19526-.7071 0-.1953.19527-.1953.51185 0 .70711l1.4029 1.4029c.1952.19526.5118.19526.7071 0 .1952-.19526.1952-.51184 0-.70711z"/></g></svg>